<?xml version="1.0" encoding="UTF-8" standalone="no"?>
<!DOCTYPE svg PUBLIC "-//W3C//DTD SVG 1.1//EN"
 "http://www.w3.org/Graphics/SVG/1.1/DTD/svg11.dtd">
<!-- Generated by graphviz version 2.38.0 (20140413.2041)
 -->
<!-- Title: dependency&#45;cruiser output Pages: 1 -->
<svg width="542pt" height="298pt"
 viewBox="0.00 0.00 542.00 297.62" xmlns="http://www.w3.org/2000/svg" xmlns:xlink="http://www.w3.org/1999/xlink">
<g id="graph0" class="graph" transform="scale(1 1) rotate(0) translate(4 293.623)">
<title>dependency&#45;cruiser output</title>
<polygon fill="white" stroke="none" points="-4,4 -4,-293.623 538,-293.623 538,4 -4,4"/>
<g id="clust1" class="cluster"><title>cluster_src</title>
<path fill="#ffffff" stroke="black" stroke-width="2" d="M20,-47.6234C20,-47.6234 460,-47.6234 460,-47.6234 466,-47.6234 472,-53.6234 472,-59.6234 472,-59.6234 472,-269.623 472,-269.623 472,-275.623 466,-281.623 460,-281.623 460,-281.623 20,-281.623 20,-281.623 14,-281.623 8,-275.623 8,-269.623 8,-269.623 8,-59.6234 8,-59.6234 8,-53.6234 14,-47.6234 20,-47.6234"/>
<text text-anchor="middle" x="240" y="-270.423" font-family="Helvetica,sans-Serif" font-weight="bold" font-size="9.00">src</text>
</g>
<g id="clust3" class="cluster"><title>cluster_src/db</title>
<path fill="#ffffff" stroke="black" stroke-width="2" d="M310,-87.6234C310,-87.6234 356,-87.6234 356,-87.6234 362,-87.6234 368,-93.6234 368,-99.6234 368,-99.6234 368,-127.623 368,-127.623 368,-133.623 362,-139.623 356,-139.623 356,-139.623 310,-139.623 310,-139.623 304,-139.623 298,-133.623 298,-127.623 298,-127.623 298,-99.6234 298,-99.6234 298,-93.6234 304,-87.6234 310,-87.6234"/>
<text text-anchor="middle" x="333" y="-128.423" font-family="Helvetica,sans-Serif" font-weight="bold" font-size="9.00">db</text>
</g>
<g id="clust2" class="cluster"><title>cluster_src/config</title>
<path fill="#ffffff" stroke="black" stroke-width="2" d="M406,-55.6234C406,-55.6234 452,-55.6234 452,-55.6234 458,-55.6234 464,-61.6234 464,-67.6234 464,-67.6234 464,-95.6234 464,-95.6234 464,-101.623 458,-107.623 452,-107.623 452,-107.623 406,-107.623 406,-107.623 400,-107.623 394,-101.623 394,-95.6234 394,-95.6234 394,-67.6234 394,-67.6234 394,-61.6234 400,-55.6234 406,-55.6234"/>
<text text-anchor="middle" x="429" y="-96.4234" font-family="Helvetica,sans-Serif" font-weight="bold" font-size="9.00">config</text>
</g>
<g id="clust4" class="cluster"><title>cluster_src/routes</title>
<path fill="#ffffff" stroke="black" stroke-width="2" d="M114,-79.6234C114,-79.6234 260,-79.6234 260,-79.6234 266,-79.6234 272,-85.6234 272,-91.6234 272,-91.6234 272,-243.623 272,-243.623 272,-249.623 266,-255.623 260,-255.623 260,-255.623 114,-255.623 114,-255.623 108,-255.623 102,-249.623 102,-243.623 102,-243.623 102,-91.6234 102,-91.6234 102,-85.6234 108,-79.6234 114,-79.6234"/>
<text text-anchor="middle" x="187" y="-244.423" font-family="Helvetica,sans-Serif" font-weight="bold" font-size="9.00">routes</text>
</g>
<g id="clust5" class="cluster"><title>cluster_src/routes/v1</title>
<path fill="#ffffff" stroke="black" stroke-width="2" d="M122,-87.6234C122,-87.6234 252,-87.6234 252,-87.6234 258,-87.6234 264,-93.6234 264,-99.6234 264,-99.6234 264,-217.623 264,-217.623 264,-223.623 258,-229.623 252,-229.623 252,-229.623 122,-229.623 122,-229.623 116,-229.623 110,-223.623 110,-217.623 110,-217.623 110,-99.6234 110,-99.6234 110,-93.6234 116,-87.6234 122,-87.6234"/>
<text text-anchor="middle" x="187" y="-218.423" font-family="Helvetica,sans-Serif" font-weight="bold" font-size="9.00">v1</text>
</g>
<g id="clust6" class="cluster"><title>cluster_src/static</title>
<path fill="#ffffff" stroke="black" stroke-width="2" d="M292,-147.623C292,-147.623 374,-147.623 374,-147.623 380,-147.623 386,-153.623 386,-159.623 386,-159.623 386,-187.623 386,-187.623 386,-193.623 380,-199.623 374,-199.623 374,-199.623 292,-199.623 292,-199.623 286,-199.623 280,-193.623 280,-187.623 280,-187.623 280,-159.623 280,-159.623 280,-153.623 286,-147.623 292,-147.623"/>
<text text-anchor="middle" x="333" y="-188.423" font-family="Helvetica,sans-Serif" font-weight="bold" font-size="9.00">static</text>
</g>
<!-- fs -->
<g id="node1" class="node"><title>fs</title>
<path fill="#ffffcc" stroke="grey" d="M166,-39.6234C166,-39.6234 124,-39.6234 124,-39.6234 121,-39.6234 118,-36.6234 118,-33.6234 118,-33.6234 118,-27.6234 118,-27.6234 118,-24.6234 121,-21.6234 124,-21.6234 124,-21.6234 166,-21.6234 166,-21.6234 169,-21.6234 172,-24.6234 172,-27.6234 172,-27.6234 172,-33.6234 172,-33.6234 172,-36.6234 169,-39.6234 166,-39.6234"/>
<text text-anchor="middle" x="145" y="-28.4234" font-family="Helvetica,sans-Serif" font-size="9.00" fill="grey">fs</text>
</g>
<!-- path -->
<g id="node2" class="node"><title>path</title>
<path fill="#ffffcc" stroke="grey" d="M528,-46.6234C528,-46.6234 486,-46.6234 486,-46.6234 483,-46.6234 480,-43.6234 480,-40.6234 480,-40.6234 480,-34.6234 480,-34.6234 480,-31.6234 483,-28.6234 486,-28.6234 486,-28.6234 528,-28.6234 528,-28.6234 531,-28.6234 534,-31.6234 534,-34.6234 534,-34.6234 534,-40.6234 534,-40.6234 534,-43.6234 531,-46.6234 528,-46.6234"/>
<text text-anchor="middle" x="507" y="-35.4234" font-family="Helvetica,sans-Serif" font-size="9.00" fill="grey">path</text>
</g>
<!-- src/config/index.js -->
<g id="node3" class="node"><title>src/config/index.js</title>
<g id="a_node3"><a xlink:href="src/config/index.js" xlink:title="index.js">
<path fill="#ffffcc" stroke="black" d="M450,-81.6234C450,-81.6234 408,-81.6234 408,-81.6234 405,-81.6234 402,-78.6234 402,-75.6234 402,-75.6234 402,-69.6234 402,-69.6234 402,-66.6234 405,-63.6234 408,-63.6234 408,-63.6234 450,-63.6234 450,-63.6234 453,-63.6234 456,-66.6234 456,-69.6234 456,-69.6234 456,-75.6234 456,-75.6234 456,-78.6234 453,-81.6234 450,-81.6234"/>
<text text-anchor="middle" x="429" y="-70.4234" font-family="Helvetica,sans-Serif" font-size="9.00">index.js</text>
</a>
</g>
</g>
<!-- src/config/index.js&#45;&gt;path -->
<g id="edge1" class="edge"><title>src/config/index.js&#45;&gt;path</title>
<path fill="none" stroke="grey" d="M449.572,-63.6101C457.928,-59.7617 467.853,-55.1909 477.032,-50.9639"/>
<polygon fill="grey" stroke="grey" points="478.611,-54.09 486.23,-46.7279 475.683,-47.7319 478.611,-54.09"/>
</g>
<!-- src/db/client.js -->
<g id="node4" class="node"><title>src/db/client.js</title>
<g id="a_node4"><a xlink:href="src/db/client.js" xlink:title="client.js">
<path fill="#ffffcc" stroke="black" d="M354,-113.623C354,-113.623 312,-113.623 312,-113.623 309,-113.623 306,-110.623 306,-107.623 306,-107.623 306,-101.623 306,-101.623 306,-98.6234 309,-95.6234 312,-95.6234 312,-95.6234 354,-95.6234 354,-95.6234 357,-95.6234 360,-98.6234 360,-101.623 360,-101.623 360,-107.623 360,-107.623 360,-110.623 357,-113.623 354,-113.623"/>
<text text-anchor="middle" x="333" y="-102.423" font-family="Helvetica,sans-Serif" font-size="9.00">client.js</text>
</a>
</g>
</g>
<!-- src/db/client.js&#45;&gt;src/config/index.js -->
<g id="edge2" class="edge"><title>src/db/client.js&#45;&gt;src/config/index.js</title>
<path fill="none" stroke="#000000" stroke-width="2" stroke-opacity="0.466667" d="M360.191,-99.0485C368.533,-97.0149 377.739,-94.4985 386,-91.6234 390.757,-89.9679 395.714,-87.978 400.484,-85.9182"/>
<polygon fill="#000000" fill-opacity="0.466667" stroke="#000000" stroke-width="2" stroke-opacity="0.466667" points="402.214,-88.9777 409.891,-81.6767 399.336,-82.5964 402.214,-88.9777"/>
</g>
<!-- src/hiddout&#45;core.js -->
<g id="node5" class="node"><title>src/hiddout&#45;core.js</title>
<g id="a_node5"><a xlink:href="src/hiddout-core.js" xlink:title="hiddout&#45;core.js">
<path fill="#ffffcc" stroke="black" d="M88,-73.6234C88,-73.6234 22,-73.6234 22,-73.6234 19,-73.6234 16,-70.6234 16,-67.6234 16,-67.6234 16,-61.6234 16,-61.6234 16,-58.6234 19,-55.6234 22,-55.6234 22,-55.6234 88,-55.6234 88,-55.6234 91,-55.6234 94,-58.6234 94,-61.6234 94,-61.6234 94,-67.6234 94,-67.6234 94,-70.6234 91,-73.6234 88,-73.6234"/>
<text text-anchor="middle" x="55" y="-62.4234" font-family="Helvetica,sans-Serif" font-size="9.00">hiddout&#45;core.js</text>
</a>
</g>
</g>
<!-- src/hiddout&#45;core.js&#45;&gt;fs -->
<g id="edge6" class="edge"><title>src/hiddout&#45;core.js&#45;&gt;fs</title>
<path fill="none" stroke="grey" d="M75.9934,-55.4727C84.0123,-51.9231 93.3804,-47.9265 102,-44.6234 103.884,-43.9015 105.823,-43.1804 107.787,-42.4676"/>
<polygon fill="grey" stroke="grey" points="109.381,-45.6177 117.66,-39.0067 107.065,-39.0117 109.381,-45.6177"/>
</g>
<!-- src/hiddout&#45;core.js&#45;&gt;path -->
<g id="edge7" class="edge"><title>src/hiddout&#45;core.js&#45;&gt;path</title>
<path fill="none" stroke="grey" d="M61.5457,-55.5562C69.1155,-44.076 83.8402,-24.7018 102,-15.6234 148.996,7.8703 166.959,-2.62343 219.5,-2.62343 219.5,-2.62343 219.5,-2.62343 334,-2.62343 381.843,-2.62343 435.696,-15.7877 470.193,-25.9693"/>
<polygon fill="grey" stroke="grey" points="469.233,-29.3356 479.818,-28.8817 471.26,-22.6356 469.233,-29.3356"/>
</g>
<!-- src/hiddout&#45;core.js&#45;&gt;src/config/index.js -->
<g id="edge3" class="edge"><title>src/hiddout&#45;core.js&#45;&gt;src/config/index.js</title>
<path fill="none" stroke="#000000" stroke-width="2" stroke-opacity="0.466667" d="M94.1526,-63.7302C96.8082,-63.6877 99.444,-63.6512 102,-63.6234 133.109,-63.2853 140.894,-63.0768 172,-63.6234 250.294,-64.9993 341.995,-68.7403 391.62,-70.9419"/>
<polygon fill="#000000" fill-opacity="0.466667" stroke="#000000" stroke-width="2" stroke-opacity="0.466667" points="391.696,-74.4487 401.842,-71.4002 392.009,-67.4558 391.696,-74.4487"/>
</g>
<!-- src/hiddout&#45;core.js&#45;&gt;src/db/client.js -->
<g id="edge4" class="edge"><title>src/hiddout&#45;core.js&#45;&gt;src/db/client.js</title>
<path fill="none" stroke="#000000" stroke-width="2" stroke-opacity="0.466667" d="M94.0171,-65.3413C147.243,-66.8203 240.942,-71.2875 272,-84.6234 276.341,-86.4875 275.814,-89.4338 280,-91.6234 284.999,-94.2381 290.547,-96.3434 296.103,-98.0341"/>
<polygon fill="#000000" fill-opacity="0.466667" stroke="#000000" stroke-width="2" stroke-opacity="0.466667" points="295.433,-101.477 305.996,-100.65 297.223,-94.7098 295.433,-101.477"/>
</g>
<!-- src/routes/v1/index.js -->
<g id="node8" class="node"><title>src/routes/v1/index.js</title>
<g id="a_node8"><a xlink:href="src/routes/v1/index.js" xlink:title="index.js">
<path fill="#ffffcc" stroke="black" d="M166,-143.623C166,-143.623 124,-143.623 124,-143.623 121,-143.623 118,-140.623 118,-137.623 118,-137.623 118,-131.623 118,-131.623 118,-128.623 121,-125.623 124,-125.623 124,-125.623 166,-125.623 166,-125.623 169,-125.623 172,-128.623 172,-131.623 172,-131.623 172,-137.623 172,-137.623 172,-140.623 169,-143.623 166,-143.623"/>
<text text-anchor="middle" x="145" y="-132.423" font-family="Helvetica,sans-Serif" font-size="9.00">index.js</text>
</a>
</g>
</g>
<!-- src/hiddout&#45;core.js&#45;&gt;src/routes/v1/index.js -->
<g id="edge5" class="edge"><title>src/hiddout&#45;core.js&#45;&gt;src/routes/v1/index.js</title>
<path fill="none" stroke="#000000" stroke-width="2" stroke-opacity="0.466667" d="M60.9918,-73.735C68.3456,-86.3238 83.2672,-108.918 102,-121.623 103.899,-122.911 105.931,-124.076 108.039,-125.129"/>
<polygon fill="#000000" fill-opacity="0.466667" stroke="#000000" stroke-width="2" stroke-opacity="0.466667" points="107.008,-128.49 117.587,-129.062 109.674,-122.017 107.008,-128.49"/>
</g>
<!-- src/routes/v1/boards.js -->
<g id="node6" class="node"><title>src/routes/v1/boards.js</title>
<g id="a_node6"><a xlink:href="src/routes/v1/boards.js" xlink:title="boards.js">
<path fill="#ffffcc" stroke="black" d="M242.5,-113.623C242.5,-113.623 198.5,-113.623 198.5,-113.623 195.5,-113.623 192.5,-110.623 192.5,-107.623 192.5,-107.623 192.5,-101.623 192.5,-101.623 192.5,-98.6234 195.5,-95.6234 198.5,-95.6234 198.5,-95.6234 242.5,-95.6234 242.5,-95.6234 245.5,-95.6234 248.5,-98.6234 248.5,-101.623 248.5,-101.623 248.5,-107.623 248.5,-107.623 248.5,-110.623 245.5,-113.623 242.5,-113.623"/>
<text text-anchor="middle" x="220.5" y="-102.423" font-family="Helvetica,sans-Serif" font-size="9.00">boards.js</text>
</a>
</g>
</g>
<!-- src/routes/v1/boards.js&#45;&gt;src/db/client.js -->
<g id="edge8" class="edge"><title>src/routes/v1/boards.js&#45;&gt;src/db/client.js</title>
<path fill="none" stroke="#000000" stroke-width="2" stroke-opacity="0.466667" d="M248.531,-104.623C262.652,-104.623 280.134,-104.623 295.444,-104.623"/>
<polygon fill="#000000" fill-opacity="0.466667" stroke="#000000" stroke-width="2" stroke-opacity="0.466667" points="295.629,-108.124 305.629,-104.623 295.629,-101.124 295.629,-108.124"/>
</g>
<!-- src/static/serverMessage.js -->
<g id="node11" class="node"><title>src/static/serverMessage.js</title>
<g id="a_node11"><a xlink:href="src/static/serverMessage.js" xlink:title="serverMessage.js">
<path fill="#ffffcc" stroke="black" d="M372,-173.623C372,-173.623 294,-173.623 294,-173.623 291,-173.623 288,-170.623 288,-167.623 288,-167.623 288,-161.623 288,-161.623 288,-158.623 291,-155.623 294,-155.623 294,-155.623 372,-155.623 372,-155.623 375,-155.623 378,-158.623 378,-161.623 378,-161.623 378,-167.623 378,-167.623 378,-170.623 375,-173.623 372,-173.623"/>
<text text-anchor="middle" x="333" y="-162.423" font-family="Helvetica,sans-Serif" font-size="9.00">serverMessage.js</text>
</a>
</g>
</g>
<!-- src/routes/v1/boards.js&#45;&gt;src/static/serverMessage.js -->
<g id="edge9" class="edge"><title>src/routes/v1/boards.js&#45;&gt;src/static/serverMessage.js</title>
<path fill="none" stroke="#000000" stroke-width="2" stroke-opacity="0.466667" d="M248.581,-107.771C256.961,-109.934 265.65,-113.559 272,-119.623 279.827,-127.098 272.602,-134.724 280,-142.623 282.94,-145.763 286.4,-148.472 290.114,-150.807"/>
<polygon fill="#000000" fill-opacity="0.466667" stroke="#000000" stroke-width="2" stroke-opacity="0.466667" points="288.649,-153.991 299.121,-155.6 291.938,-147.812 288.649,-153.991"/>
</g>
<!-- src/routes/v1/comments.js -->
<g id="node7" class="node"><title>src/routes/v1/comments.js</title>
<g id="a_node7"><a xlink:href="src/routes/v1/comments.js" xlink:title="comments.js">
<path fill="#ffffcc" stroke="black" d="M250,-143.623C250,-143.623 191,-143.623 191,-143.623 188,-143.623 185,-140.623 185,-137.623 185,-137.623 185,-131.623 185,-131.623 185,-128.623 188,-125.623 191,-125.623 191,-125.623 250,-125.623 250,-125.623 253,-125.623 256,-128.623 256,-131.623 256,-131.623 256,-137.623 256,-137.623 256,-140.623 253,-143.623 250,-143.623"/>
<text text-anchor="middle" x="220.5" y="-132.423" font-family="Helvetica,sans-Serif" font-size="9.00">comments.js</text>
</a>
</g>
</g>
<!-- src/routes/v1/comments.js&#45;&gt;src/db/client.js -->
<g id="edge10" class="edge"><title>src/routes/v1/comments.js&#45;&gt;src/db/client.js</title>
<path fill="none" stroke="#000000" stroke-width="2" stroke-opacity="0.466667" d="M254.654,-125.622C267.723,-122.074 282.768,-117.989 296.095,-114.371"/>
<polygon fill="#000000" fill-opacity="0.466667" stroke="#000000" stroke-width="2" stroke-opacity="0.466667" points="297.156,-117.71 305.89,-111.712 295.322,-110.955 297.156,-117.71"/>
</g>
<!-- src/routes/v1/comments.js&#45;&gt;src/static/serverMessage.js -->
<g id="edge11" class="edge"><title>src/routes/v1/comments.js&#45;&gt;src/static/serverMessage.js</title>
<path fill="none" stroke="#000000" stroke-width="2" stroke-opacity="0.466667" d="M254.654,-143.624C265.372,-146.534 277.419,-149.805 288.758,-152.883"/>
<polygon fill="#000000" fill-opacity="0.466667" stroke="#000000" stroke-width="2" stroke-opacity="0.466667" points="287.92,-156.283 298.488,-155.525 289.754,-149.527 287.92,-156.283"/>
</g>
<!-- src/routes/v1/index.js&#45;&gt;src/routes/v1/boards.js -->
<g id="edge12" class="edge"><title>src/routes/v1/index.js&#45;&gt;src/routes/v1/boards.js</title>
<path fill="none" stroke="#000000" stroke-width="2" stroke-opacity="0.466667" d="M168.052,-125.622C174.246,-123.095 181.106,-120.294 187.745,-117.585"/>
<polygon fill="#000000" fill-opacity="0.466667" stroke="#000000" stroke-width="2" stroke-opacity="0.466667" points="189.273,-120.741 197.209,-113.722 186.628,-114.26 189.273,-120.741"/>
</g>
<!-- src/routes/v1/index.js&#45;&gt;src/routes/v1/comments.js -->
<g id="edge13" class="edge"><title>src/routes/v1/index.js&#45;&gt;src/routes/v1/comments.js</title>
<path fill="none" stroke="#000000" stroke-width="2" stroke-opacity="0.466667" d="M172.12,-134.623C172.894,-134.623 173.674,-134.623 174.46,-134.623"/>
<polygon fill="#000000" fill-opacity="0.466667" stroke="#000000" stroke-width="2" stroke-opacity="0.466667" points="174.852,-138.124 184.852,-134.623 174.852,-131.124 174.852,-138.124"/>
</g>
<!-- src/routes/v1/posts.js -->
<g id="node9" class="node"><title>src/routes/v1/posts.js</title>
<g id="a_node9"><a xlink:href="src/routes/v1/posts.js" xlink:title="posts.js">
<path fill="#ffffcc" stroke="black" d="M241.5,-173.623C241.5,-173.623 199.5,-173.623 199.5,-173.623 196.5,-173.623 193.5,-170.623 193.5,-167.623 193.5,-167.623 193.5,-161.623 193.5,-161.623 193.5,-158.623 196.5,-155.623 199.5,-155.623 199.5,-155.623 241.5,-155.623 241.5,-155.623 244.5,-155.623 247.5,-158.623 247.5,-161.623 247.5,-161.623 247.5,-167.623 247.5,-167.623 247.5,-170.623 244.5,-173.623 241.5,-173.623"/>
<text text-anchor="middle" x="220.5" y="-162.423" font-family="Helvetica,sans-Serif" font-size="9.00">posts.js</text>
</a>
</g>
</g>
<!-- src/routes/v1/index.js&#45;&gt;src/routes/v1/posts.js -->
<g id="edge14" class="edge"><title>src/routes/v1/index.js&#45;&gt;src/routes/v1/posts.js</title>
<path fill="none" stroke="#000000" stroke-width="2" stroke-opacity="0.466667" d="M168.052,-143.624C174.246,-146.152 181.106,-148.952 187.745,-151.662"/>
<polygon fill="#000000" fill-opacity="0.466667" stroke="#000000" stroke-width="2" stroke-opacity="0.466667" points="186.628,-154.987 197.209,-155.525 189.273,-148.506 186.628,-154.987"/>
</g>
<!-- src/routes/v1/signup.js -->
<g id="node10" class="node"><title>src/routes/v1/signup.js</title>
<g id="a_node10"><a xlink:href="src/routes/v1/signup.js" xlink:title="signup.js">
<path fill="#ffffcc" stroke="black" d="M242,-203.623C242,-203.623 199,-203.623 199,-203.623 196,-203.623 193,-200.623 193,-197.623 193,-197.623 193,-191.623 193,-191.623 193,-188.623 196,-185.623 199,-185.623 199,-185.623 242,-185.623 242,-185.623 245,-185.623 248,-188.623 248,-191.623 248,-191.623 248,-197.623 248,-197.623 248,-200.623 245,-203.623 242,-203.623"/>
<text text-anchor="middle" x="220.5" y="-192.423" font-family="Helvetica,sans-Serif" font-size="9.00">signup.js</text>
</a>
</g>
</g>
<!-- src/routes/v1/index.js&#45;&gt;src/routes/v1/signup.js -->
<g id="edge15" class="edge"><title>src/routes/v1/index.js&#45;&gt;src/routes/v1/signup.js</title>
<path fill="none" stroke="#000000" stroke-width="2" stroke-opacity="0.466667" d="M151.943,-143.632C158.876,-153.56 171.168,-169.466 185,-179.623 185.382,-179.904 185.769,-180.18 186.162,-180.453"/>
<polygon fill="#000000" fill-opacity="0.466667" stroke="#000000" stroke-width="2" stroke-opacity="0.466667" points="184.589,-183.587 194.99,-185.608 188.12,-177.543 184.589,-183.587"/>
</g>
<!-- src/routes/v1/posts.js&#45;&gt;src/db/client.js -->
<g id="edge16" class="edge"><title>src/routes/v1/posts.js&#45;&gt;src/db/client.js</title>
<path fill="none" stroke="#000000" stroke-width="2" stroke-opacity="0.466667" d="M247.607,-158.773C255.659,-156.471 264.402,-153.446 272,-149.623 276.392,-147.414 296.485,-132.149 312.225,-120.002"/>
<polygon fill="#000000" fill-opacity="0.466667" stroke="#000000" stroke-width="2" stroke-opacity="0.466667" points="314.629,-122.567 320.394,-113.677 310.344,-117.032 314.629,-122.567"/>
</g>
<!-- src/routes/v1/posts.js&#45;&gt;src/static/serverMessage.js -->
<g id="edge17" class="edge"><title>src/routes/v1/posts.js&#45;&gt;src/static/serverMessage.js</title>
<path fill="none" stroke="#000000" stroke-width="2" stroke-opacity="0.466667" d="M247.687,-164.623C256.779,-164.623 267.34,-164.623 277.848,-164.623"/>
<polygon fill="#000000" fill-opacity="0.466667" stroke="#000000" stroke-width="2" stroke-opacity="0.466667" points="277.856,-168.124 287.856,-164.623 277.856,-161.124 277.856,-168.124"/>
</g>
<!-- src/routes/v1/signup.js&#45;&gt;src/db/client.js -->
<g id="edge18" class="edge"><title>src/routes/v1/signup.js&#45;&gt;src/db/client.js</title>
<path fill="none" stroke="#000000" stroke-width="2" stroke-opacity="0.466667" d="M248.195,-192.07C256.85,-189.967 265.806,-186.228 272,-179.623 282.916,-167.985 271.39,-158.058 280,-144.623 286.493,-134.491 296.484,-125.909 305.98,-119.324"/>
<polygon fill="#000000" fill-opacity="0.466667" stroke="#000000" stroke-width="2" stroke-opacity="0.466667" points="307.949,-122.218 314.446,-113.849 304.148,-116.34 307.949,-122.218"/>
</g>
<!-- src/routes/v1/signup.js&#45;&gt;src/static/serverMessage.js -->
<g id="edge19" class="edge"><title>src/routes/v1/signup.js&#45;&gt;src/static/serverMessage.js</title>
<path fill="none" stroke="#000000" stroke-width="2" stroke-opacity="0.466667" d="M248.249,-187.361C260.482,-184.04 275.281,-180.022 289.015,-176.293"/>
<polygon fill="#000000" fill-opacity="0.466667" stroke="#000000" stroke-width="2" stroke-opacity="0.466667" points="290.043,-179.641 298.776,-173.643 288.208,-172.886 290.043,-179.641"/>
</g>
</g>
</svg>
